<?xml version="1.0" standalone="yes"?>

<svg version="1.1" viewBox="0.0 0.0 960.0 540.0" fill="none" stroke="none" stroke-linecap="square" stroke-miterlimit="10" xmlns="http://www.w3.org/2000/svg" xmlns:xlink="http://www.w3.org/1999/xlink"><clipPath id="p.0"><path d="m0 0l960.0 0l0 540.0l-960.0 0l0 -540.0z" clip-rule="nonzero"></path></clipPath><g clip-path="url(#p.0)"><path fill="#ffffff" d="m0 0l960.0 0l0 540.0l-960.0 0z" fill-rule="evenodd"></path><path fill="#eeeeee" d="m13.635171 296.66666l57.574806 0l0 55.370087l-57.574806 0z" fill-rule="evenodd"></path><path stroke="#595959" stroke-width="1.0" stroke-linejoin="round" stroke-linecap="butt" d="m13.635171 296.66666l57.574806 0l0 55.370087l-57.574806 0z" fill-rule="evenodd"></path><path fill="#eeeeee" d="m71.20998 296.66666l57.5748 0l0 55.370087l-57.5748 0z" fill-rule="evenodd"></path><path stroke="#595959" stroke-width="1.0" stroke-linejoin="round" stroke-linecap="butt" d="m71.20998 296.66666l57.5748 0l0 55.370087l-57.5748 0z" fill-rule="evenodd"></path><path fill="#eeeeee" d="m128.78477 296.66666l57.5748 0l0 55.370087l-57.5748 0z" fill-rule="evenodd"></path><path stroke="#595959" stroke-width="1.0" stroke-linejoin="round" stroke-linecap="butt" d="m128.78477 296.66666l57.5748 0l0 55.370087l-57.5748 0z" fill-rule="evenodd"></path><path fill="#eeeeee" d="m13.635171 352.03674l57.574806 0l0 55.370087l-57.574806 0z" fill-rule="evenodd"></path><path stroke="#595959" stroke-width="1.0" stroke-linejoin="round" stroke-linecap="butt" d="m13.635171 352.03674l57.574806 0l0 55.370087l-57.574806 0z" fill-rule="evenodd"></path><path fill="#38761d" d="m71.20998 352.03674l57.5748 0l0 55.370087l-57.5748 0z" fill-rule="evenodd"></path><path stroke="#595959" stroke-width="1.0" stroke-linejoin="round" stroke-linecap="butt" d="m71.20998 352.03674l57.5748 0l0 55.370087l-57.5748 0z" fill-rule="evenodd"></path><path fill="#eeeeee" d="m128.78477 352.03674l57.5748 0l0 55.370087l-57.5748 0z" fill-rule="evenodd"></path><path stroke="#595959" stroke-width="1.0" stroke-linejoin="round" stroke-linecap="butt" d="m128.78477 352.03674l57.5748 0l0 55.370087l-57.5748 0z" fill-rule="evenodd"></path><path fill="#eeeeee" d="m13.635171 407.40683l57.574806 0l0 55.370087l-57.574806 0z" fill-rule="evenodd"></path><path stroke="#595959" stroke-width="1.0" stroke-linejoin="round" stroke-linecap="butt" d="m13.635171 407.40683l57.574806 0l0 55.370087l-57.574806 0z" fill-rule="evenodd"></path><path fill="#eeeeee" d="m71.20998 407.40683l57.5748 0l0 55.370087l-57.5748 0z" fill-rule="evenodd"></path><path stroke="#595959" stroke-width="1.0" stroke-linejoin="round" stroke-linecap="butt" d="m71.20998 407.40683l57.5748 0l0 55.370087l-57.5748 0z" fill-rule="evenodd"></path><path fill="#eeeeee" d="m128.78477 407.40683l57.5748 0l0 55.370087l-57.5748 0z" fill-rule="evenodd"></path><path stroke="#595959" stroke-width="1.0" stroke-linejoin="round" stroke-linecap="butt" d="m128.78477 407.40683l57.5748 0l0 55.370087l-57.5748 0z" fill-rule="evenodd"></path><path fill="#eeeeee" d="m277.5092 241.29659l57.5748 0l0 55.37007l-57.5748 0z" fill-rule="evenodd"></path><path stroke="#595959" stroke-width="1.0" stroke-linejoin="round" stroke-linecap="butt" d="m277.5092 241.29659l57.5748 0l0 55.37007l-57.5748 0z" fill-rule="evenodd"></path><path fill="#eeeeee" d="m335.08398 241.29659l57.5748 0l0 55.37007l-57.5748 0z" fill-rule="evenodd"></path><path stroke="#595959" stroke-width="1.0" stroke-linejoin="round" stroke-linecap="butt" d="m335.08398 241.29659l57.5748 0l0 55.37007l-57.5748 0z" fill-rule="evenodd"></path><path fill="#eeeeee" d="m277.5092 296.66666l57.5748 0l0 55.370087l-57.5748 0z" fill-rule="evenodd"></path><path stroke="#595959" stroke-width="1.0" stroke-linejoin="round" stroke-linecap="butt" d="m277.5092 296.66666l57.5748 0l0 55.370087l-57.5748 0z" fill-rule="evenodd"></path><path fill="#38761d" d="m335.08398 296.66666l57.5748 0l0 55.370087l-57.5748 0z" fill-rule="evenodd"></path><path stroke="#595959" stroke-width="1.0" stroke-linejoin="round" stroke-linecap="butt" d="m335.08398 296.66666l57.5748 0l0 55.370087l-57.5748 0z" fill-rule="evenodd"></path><path fill="#eeeeee" d="m277.5092 352.03674l57.5748 0l0 55.370087l-57.5748 0z" fill-rule="evenodd"></path><path stroke="#595959" stroke-width="1.0" stroke-linejoin="round" stroke-linecap="butt" d="m277.5092 352.03674l57.5748 0l0 55.370087l-57.5748 0z" fill-rule="evenodd"></path><path fill="#eeeeee" d="m335.08398 352.03674l57.5748 0l0 55.370087l-57.5748 0z" fill-rule="evenodd"></path><path stroke="#595959" stroke-width="1.0" stroke-linejoin="round" stroke-linecap="butt" d="m335.08398 352.03674l57.5748 0l0 55.370087l-57.5748 0z" fill-rule="evenodd"></path><path fill="#eeeeee" d="m219.93439 185.92651l57.5748 0l0 55.37007l-57.5748 0z" fill-rule="evenodd"></path><path stroke="#595959" stroke-width="1.0" stroke-linejoin="round" stroke-linecap="butt" d="m219.93439 185.92651l57.5748 0l0 55.37007l-57.5748 0z" fill-rule="evenodd"></path><path fill="#eeeeee" d="m277.5092 185.92651l57.5748 0l0 55.37007l-57.5748 0z" fill-rule="evenodd"></path><path stroke="#595959" stroke-width="1.0" stroke-linejoin="round" stroke-linecap="butt" d="m277.5092 185.92651l57.5748 0l0 55.37007l-57.5748 0z" fill-rule="evenodd"></path><path fill="#eeeeee" d="m335.08398 185.92651l57.5748 0l0 55.37007l-57.5748 0z" fill-rule="evenodd"></path><path stroke="#595959" stroke-width="1.0" stroke-linejoin="round" stroke-linecap="butt" d="m335.08398 185.92651l57.5748 0l0 55.37007l-57.5748 0z" fill-rule="evenodd"></path><path fill="#eeeeee" d="m219.93439 407.40683l57.5748 0l0 55.370087l-57.5748 0z" fill-rule="evenodd"></path><path stroke="#595959" stroke-width="1.0" stroke-linejoin="round" stroke-linecap="butt" d="m219.93439 407.40683l57.5748 0l0 55.370087l-57.5748 0z" fill-rule="evenodd"></path><path fill="#eeeeee" d="m277.5092 407.40683l57.5748 0l0 55.370087l-57.5748 0z" fill-rule="evenodd"></path><path stroke="#595959" stroke-width="1.0" stroke-linejoin="round" stroke-linecap="butt" d="m277.5092 407.40683l57.5748 0l0 55.370087l-57.5748 0z" fill-rule="evenodd"></path><path fill="#eeeeee" d="m335.08398 407.40683l57.5748 0l0 55.370087l-57.5748 0z" fill-rule="evenodd"></path><path stroke="#595959" stroke-width="1.0" stroke-linejoin="round" stroke-linecap="butt" d="m335.08398 407.40683l57.5748 0l0 55.370087l-57.5748 0z" fill-rule="evenodd"></path><path fill="#eeeeee" d="m219.93439 241.29659l57.5748 0l0 55.37007l-57.5748 0z" fill-rule="evenodd"></path><path stroke="#595959" stroke-width="1.0" stroke-linejoin="round" stroke-linecap="butt" d="m219.93439 241.29659l57.5748 0l0 55.37007l-57.5748 0z" fill-rule="evenodd"></path><path fill="#eeeeee" d="m219.93439 296.66666l57.5748 0l0 55.370087l-57.5748 0z" fill-rule="evenodd"></path><path stroke="#595959" stroke-width="1.0" stroke-linejoin="round" stroke-linecap="butt" d="m219.93439 296.66666l57.5748 0l0 55.370087l-57.5748 0z" fill-rule="evenodd"></path><path fill="#eeeeee" d="m219.93439 352.03674l57.5748 0l0 55.370087l-57.5748 0z" fill-rule="evenodd"></path><path stroke="#595959" stroke-width="1.0" stroke-linejoin="round" stroke-linecap="butt" d="m219.93439 352.03674l57.5748 0l0 55.370087l-57.5748 0z" fill-rule="evenodd"></path><path fill="#eeeeee" d="m392.65878 241.29659l57.5748 0l0 55.37007l-57.5748 0z" fill-rule="evenodd"></path><path stroke="#595959" stroke-width="1.0" stroke-linejoin="round" stroke-linecap="butt" d="m392.65878 241.29659l57.5748 0l0 55.37007l-57.5748 0z" fill-rule="evenodd"></path><path fill="#eeeeee" d="m392.65878 296.66666l57.5748 0l0 55.370087l-57.5748 0z" fill-rule="evenodd"></path><path stroke="#595959" stroke-width="1.0" stroke-linejoin="round" stroke-linecap="butt" d="m392.65878 296.66666l57.5748 0l0 55.370087l-57.5748 0z" fill-rule="evenodd"></path><path fill="#eeeeee" d="m392.65878 352.03674l57.5748 0l0 55.370087l-57.5748 0z" fill-rule="evenodd"></path><path stroke="#595959" stroke-width="1.0" stroke-linejoin="round" stroke-linecap="butt" d="m392.65878 352.03674l57.5748 0l0 55.370087l-57.5748 0z" fill-rule="evenodd"></path><path fill="#eeeeee" d="m392.65878 185.92651l57.5748 0l0 55.37007l-57.5748 0z" fill-rule="evenodd"></path><path stroke="#595959" stroke-width="1.0" stroke-linejoin="round" stroke-linecap="butt" d="m392.65878 185.92651l57.5748 0l0 55.37007l-57.5748 0z" fill-rule="evenodd"></path><path fill="#eeeeee" d="m392.65878 407.40683l57.5748 0l0 55.370087l-57.5748 0z" fill-rule="evenodd"></path><path stroke="#595959" stroke-width="1.0" stroke-linejoin="round" stroke-linecap="butt" d="m392.65878 407.40683l57.5748 0l0 55.370087l-57.5748 0z" fill-rule="evenodd"></path><path fill="#eeeeee" d="m450.23358 241.29659l57.57483 0l0 55.37007l-57.57483 0z" fill-rule="evenodd"></path><path stroke="#595959" stroke-width="1.0" stroke-linejoin="round" stroke-linecap="butt" d="m450.23358 241.29659l57.57483 0l0 55.37007l-57.57483 0z" fill-rule="evenodd"></path><path fill="#eeeeee" d="m450.23358 296.66666l57.57483 0l0 55.370087l-57.57483 0z" fill-rule="evenodd"></path><path stroke="#595959" stroke-width="1.0" stroke-linejoin="round" stroke-linecap="butt" d="m450.23358 296.66666l57.57483 0l0 55.370087l-57.57483 0z" fill-rule="evenodd"></path><path fill="#eeeeee" d="m450.23358 352.03674l57.57483 0l0 55.370087l-57.57483 0z" fill-rule="evenodd"></path><path stroke="#595959" stroke-width="1.0" stroke-linejoin="round" stroke-linecap="butt" d="m450.23358 352.03674l57.57483 0l0 55.370087l-57.57483 0z" fill-rule="evenodd"></path><path fill="#eeeeee" d="m450.23358 185.92651l57.57483 0l0 55.37007l-57.57483 0z" fill-rule="evenodd"></path><path stroke="#595959" stroke-width="1.0" stroke-linejoin="round" stroke-linecap="butt" d="m450.23358 185.92651l57.57483 0l0 55.37007l-57.57483 0z" fill-rule="evenodd"></path><path fill="#eeeeee" d="m450.23358 407.40683l57.57483 0l0 55.370087l-57.57483 0z" fill-rule="evenodd"></path><path stroke="#595959" stroke-width="1.0" stroke-linejoin="round" stroke-linecap="butt" d="m450.23358 407.40683l57.57483 0l0 55.370087l-57.57483 0z" fill-rule="evenodd"></path><path fill="#eeeeee" d="m595.3123 241.29659l57.57483 0l0 55.37007l-57.57483 0z" fill-rule="evenodd"></path><path stroke="#595959" stroke-width="1.0" stroke-linejoin="round" stroke-linecap="butt" d="m595.3123 241.29659l57.57483 0l0 55.37007l-57.57483 0z" fill-rule="evenodd"></path><path fill="#eeeeee" d="m652.88715 241.29659l57.574768 0l0 55.37007l-57.574768 0z" fill-rule="evenodd"></path><path stroke="#595959" stroke-width="1.0" stroke-linejoin="round" stroke-linecap="butt" d="m652.88715 241.29659l57.574768 0l0 55.37007l-57.574768 0z" fill-rule="evenodd"></path><path fill="#eeeeee" d="m595.3123 296.66666l57.57483 0l0 55.370087l-57.57483 0z" fill-rule="evenodd"></path><path stroke="#595959" stroke-width="1.0" stroke-linejoin="round" stroke-linecap="butt" d="m595.3123 296.66666l57.57483 0l0 55.370087l-57.57483 0z" fill-rule="evenodd"></path><path fill="#eeeeee" d="m652.88715 296.66666l57.574768 0l0 55.370087l-57.574768 0z" fill-rule="evenodd"></path><path stroke="#595959" stroke-width="1.0" stroke-linejoin="round" stroke-linecap="butt" d="m652.88715 296.66666l57.574768 0l0 55.370087l-57.574768 0z" fill-rule="evenodd"></path><path fill="#eeeeee" d="m595.3123 352.03674l57.57483 0l0 55.370087l-57.57483 0z" fill-rule="evenodd"></path><path stroke="#595959" stroke-width="1.0" stroke-linejoin="round" stroke-linecap="butt" d="m595.3123 352.03674l57.57483 0l0 55.370087l-57.57483 0z" fill-rule="evenodd"></path><path fill="#eeeeee" d="m652.88715 352.03674l57.574768 0l0 55.370087l-57.574768 0z" fill-rule="evenodd"></path><path stroke="#595959" stroke-width="1.0" stroke-linejoin="round" stroke-linecap="butt" d="m652.88715 352.03674l57.574768 0l0 55.370087l-57.574768 0z" fill-rule="evenodd"></path><path fill="#eeeeee" d="m537.73755 185.92651l57.574768 0l0 55.37007l-57.574768 0z" fill-rule="evenodd"></path><path stroke="#595959" stroke-width="1.0" stroke-linejoin="round" stroke-linecap="butt" d="m537.73755 185.92651l57.574768 0l0 55.37007l-57.574768 0z" fill-rule="evenodd"></path><path fill="#eeeeee" d="m595.3123 185.92651l57.57483 0l0 55.37007l-57.57483 0z" fill-rule="evenodd"></path><path stroke="#595959" stroke-width="1.0" stroke-linejoin="round" stroke-linecap="butt" d="m595.3123 185.92651l57.57483 0l0 55.37007l-57.57483 0z" fill-rule="evenodd"></path><path fill="#eeeeee" d="m652.88715 185.92651l57.574768 0l0 55.37007l-57.574768 0z" fill-rule="evenodd"></path><path stroke="#595959" stroke-width="1.0" stroke-linejoin="round" stroke-linecap="butt" d="m652.88715 185.92651l57.574768 0l0 55.37007l-57.574768 0z" fill-rule="evenodd"></path><path fill="#eeeeee" d="m537.73755 407.40683l57.574768 0l0 55.370087l-57.574768 0z" fill-rule="evenodd"></path><path stroke="#595959" stroke-width="1.0" stroke-linejoin="round" stroke-linecap="butt" d="m537.73755 407.40683l57.574768 0l0 55.370087l-57.574768 0z" fill-rule="evenodd"></path><path fill="#eeeeee" d="m595.3123 407.40683l57.57483 0l0 55.370087l-57.57483 0z" fill-rule="evenodd"></path><path stroke="#595959" stroke-width="1.0" stroke-linejoin="round" stroke-linecap="butt" d="m595.3123 407.40683l57.57483 0l0 55.370087l-57.57483 0z" fill-rule="evenodd"></path><path fill="#eeeeee" d="m652.88715 407.40683l57.574768 0l0 55.370087l-57.574768 0z" fill-rule="evenodd"></path><path stroke="#595959" stroke-width="1.0" stroke-linejoin="round" stroke-linecap="butt" d="m652.88715 407.40683l57.574768 0l0 55.370087l-57.574768 0z" fill-rule="evenodd"></path><path fill="#eeeeee" d="m537.73755 241.29659l57.574768 0l0 55.37007l-57.574768 0z" fill-rule="evenodd"></path><path stroke="#595959" stroke-width="1.0" stroke-linejoin="round" stroke-linecap="butt" d="m537.73755 241.29659l57.574768 0l0 55.37007l-57.574768 0z" fill-rule="evenodd"></path><path fill="#eeeeee" d="m537.73755 296.66666l57.574768 0l0 55.370087l-57.574768 0z" fill-rule="evenodd"></path><path stroke="#595959" stroke-width="1.0" stroke-linejoin="round" stroke-linecap="butt" d="m537.73755 296.66666l57.574768 0l0 55.370087l-57.574768 0z" fill-rule="evenodd"></path><path fill="#eeeeee" d="m537.73755 352.03674l57.574768 0l0 55.370087l-57.574768 0z" fill-rule="evenodd"></path><path stroke="#595959" stroke-width="1.0" stroke-linejoin="round" stroke-linecap="butt" d="m537.73755 352.03674l57.574768 0l0 55.370087l-57.574768 0z" fill-rule="evenodd"></path><path fill="#38761d" d="m710.4619 241.29659l57.57483 0l0 55.37007l-57.57483 0z" fill-rule="evenodd"></path><path stroke="#595959" stroke-width="1.0" stroke-linejoin="round" stroke-linecap="butt" d="m710.4619 241.29659l57.57483 0l0 55.37007l-57.57483 0z" fill-rule="evenodd"></path><path fill="#eeeeee" d="m710.4619 296.66666l57.57483 0l0 55.370087l-57.57483 0z" fill-rule="evenodd"></path><path stroke="#595959" stroke-width="1.0" stroke-linejoin="round" stroke-linecap="butt" d="m710.4619 296.66666l57.57483 0l0 55.370087l-57.57483 0z" fill-rule="evenodd"></path><path fill="#eeeeee" d="m710.4619 352.03674l57.57483 0l0 55.370087l-57.57483 0z" fill-rule="evenodd"></path><path stroke="#595959" stroke-width="1.0" stroke-linejoin="round" stroke-linecap="butt" d="m710.4619 352.03674l57.57483 0l0 55.370087l-57.57483 0z" fill-rule="evenodd"></path><path fill="#eeeeee" d="m710.4619 185.92651l57.57483 0l0 55.37007l-57.57483 0z" fill-rule="evenodd"></path><path stroke="#595959" stroke-width="1.0" stroke-linejoin="round" stroke-linecap="butt" d="m710.4619 185.92651l57.57483 0l0 55.37007l-57.57483 0z" fill-rule="evenodd"></path><path fill="#eeeeee" d="m710.4619 407.40683l57.57483 0l0 55.370087l-57.57483 0z" fill-rule="evenodd"></path><path stroke="#595959" stroke-width="1.0" stroke-linejoin="round" stroke-linecap="butt" d="m710.4619 407.40683l57.57483 0l0 55.370087l-57.57483 0z" fill-rule="evenodd"></path><path fill="#eeeeee" d="m768.03674 241.29659l57.57483 0l0 55.37007l-57.57483 0z" fill-rule="evenodd"></path><path stroke="#595959" stroke-width="1.0" stroke-linejoin="round" stroke-linecap="butt" d="m768.03674 241.29659l57.57483 0l0 55.37007l-57.57483 0z" fill-rule="evenodd"></path><path fill="#eeeeee" d="m768.03674 296.66666l57.57483 0l0 55.370087l-57.57483 0z" fill-rule="evenodd"></path><path stroke="#595959" stroke-width="1.0" stroke-linejoin="round" stroke-linecap="butt" d="m768.03674 296.66666l57.57483 0l0 55.370087l-57.57483 0z" fill-rule="evenodd"></path><path fill="#eeeeee" d="m768.03674 352.03674l57.57483 0l0 55.370087l-57.57483 0z" fill-rule="evenodd"></path><path stroke="#595959" stroke-width="1.0" stroke-linejoin="round" stroke-linecap="butt" d="m768.03674 352.03674l57.57483 0l0 55.370087l-57.57483 0z" fill-rule="evenodd"></path><path fill="#eeeeee" d="m768.03674 185.92651l57.57483 0l0 55.37007l-57.57483 0z" fill-rule="evenodd"></path><path stroke="#595959" stroke-width="1.0" stroke-linejoin="round" stroke-linecap="butt" d="m768.03674 185.92651l57.57483 0l0 55.37007l-57.57483 0z" fill-rule="evenodd"></path><path fill="#eeeeee" d="m768.03674 407.40683l57.57483 0l0 55.370087l-57.57483 0z" fill-rule="evenodd"></path><path stroke="#595959" stroke-width="1.0" stroke-linejoin="round" stroke-linecap="butt" d="m768.03674 407.40683l57.57483 0l0 55.370087l-57.57483 0z" fill-rule="evenodd"></path><path fill="#eeeeee" d="m537.73755 130.55643l57.574768 0l0 55.370087l-57.574768 0z" fill-rule="evenodd"></path><path stroke="#595959" stroke-width="1.0" stroke-linejoin="round" stroke-linecap="butt" d="m537.73755 130.55643l57.574768 0l0 55.370087l-57.574768 0z" fill-rule="evenodd"></path><path fill="#eeeeee" d="m595.3123 130.55643l57.57483 0l0 55.370087l-57.57483 0z" fill-rule="evenodd"></path><path stroke="#595959" stroke-width="1.0" stroke-linejoin="round" stroke-linecap="butt" d="m595.3123 130.55643l57.57483 0l0 55.370087l-57.57483 0z" fill-rule="evenodd"></path><path fill="#eeeeee" d="m652.88715 130.55643l57.574768 0l0 55.370087l-57.574768 0z" fill-rule="evenodd"></path><path stroke="#595959" stroke-width="1.0" stroke-linejoin="round" stroke-linecap="butt" d="m652.88715 130.55643l57.574768 0l0 55.370087l-57.574768 0z" fill-rule="evenodd"></path><path fill="#eeeeee" d="m710.4619 130.55643l57.57483 0l0 55.370087l-57.57483 0z" fill-rule="evenodd"></path><path stroke="#595959" stroke-width="1.0" stroke-linejoin="round" stroke-linecap="butt" d="m710.4619 130.55643l57.57483 0l0 55.370087l-57.57483 0z" fill-rule="evenodd"></path><path fill="#eeeeee" d="m768.03674 130.55643l57.57483 0l0 55.370087l-57.57483 0z" fill-rule="evenodd"></path><path stroke="#595959" stroke-width="1.0" stroke-linejoin="round" stroke-linecap="butt" d="m768.03674 130.55643l57.57483 0l0 55.370087l-57.57483 0z" fill-rule="evenodd"></path><path fill="#eeeeee" d="m537.73755 75.18635l57.574768 0l0 55.37008l-57.574768 0z" fill-rule="evenodd"></path><path stroke="#595959" stroke-width="1.0" stroke-linejoin="round" stroke-linecap="butt" d="m537.73755 75.18635l57.574768 0l0 55.37008l-57.574768 0z" fill-rule="evenodd"></path><path fill="#eeeeee" d="m595.3123 75.18635l57.57483 0l0 55.37008l-57.57483 0z" fill-rule="evenodd"></path><path stroke="#595959" stroke-width="1.0" stroke-linejoin="round" stroke-linecap="butt" d="m595.3123 75.18635l57.57483 0l0 55.37008l-57.57483 0z" fill-rule="evenodd"></path><path fill="#eeeeee" d="m652.88715 75.18635l57.574768 0l0 55.37008l-57.574768 0z" fill-rule="evenodd"></path><path stroke="#595959" stroke-width="1.0" stroke-linejoin="round" stroke-linecap="butt" d="m652.88715 75.18635l57.574768 0l0 55.37008l-57.574768 0z" fill-rule="evenodd"></path><path fill="#eeeeee" d="m710.4619 75.18635l57.57483 0l0 55.37008l-57.57483 0z" fill-rule="evenodd"></path><path stroke="#595959" stroke-width="1.0" stroke-linejoin="round" stroke-linecap="butt" d="m710.4619 75.18635l57.57483 0l0 55.37008l-57.57483 0z" fill-rule="evenodd"></path><path fill="#eeeeee" d="m768.03674 75.18635l57.57483 0l0 55.37008l-57.57483 0z" fill-rule="evenodd"></path><path stroke="#595959" stroke-width="1.0" stroke-linejoin="round" stroke-linecap="butt" d="m768.03674 75.18635l57.57483 0l0 55.37008l-57.57483 0z" fill-rule="evenodd"></path><path fill="#eeeeee" d="m825.6116 185.92651l57.574768 0l0 55.37007l-57.574768 0z" fill-rule="evenodd"></path><path stroke="#595959" stroke-width="1.0" stroke-linejoin="round" stroke-linecap="butt" d="m825.6116 185.92651l57.574768 0l0 55.37007l-57.574768 0z" fill-rule="evenodd"></path><path fill="#eeeeee" d="m825.6116 407.40683l57.574768 0l0 55.370087l-57.574768 0z" fill-rule="evenodd"></path><path stroke="#595959" stroke-width="1.0" stroke-linejoin="round" stroke-linecap="butt" d="m825.6116 407.40683l57.574768 0l0 55.370087l-57.574768 0z" fill-rule="evenodd"></path><path fill="#eeeeee" d="m825.6116 241.29659l57.574768 0l0 55.37007l-57.574768 0z" fill-rule="evenodd"></path><path stroke="#595959" stroke-width="1.0" stroke-linejoin="round" stroke-linecap="butt" d="m825.6116 241.29659l57.574768 0l0 55.37007l-57.574768 0z" fill-rule="evenodd"></path><path fill="#eeeeee" d="m825.6116 296.66666l57.574768 0l0 55.370087l-57.574768 0z" fill-rule="evenodd"></path><path stroke="#595959" stroke-width="1.0" stroke-linejoin="round" stroke-linecap="butt" d="m825.6116 296.66666l57.574768 0l0 55.370087l-57.574768 0z" fill-rule="evenodd"></path><path fill="#eeeeee" d="m825.6116 352.03674l57.574768 0l0 55.370087l-57.574768 0z" fill-rule="evenodd"></path><path stroke="#595959" stroke-width="1.0" stroke-linejoin="round" stroke-linecap="butt" d="m825.6116 352.03674l57.574768 0l0 55.370087l-57.574768 0z" fill-rule="evenodd"></path><path fill="#eeeeee" d="m825.6116 130.55643l57.574768 0l0 55.370087l-57.574768 0z" fill-rule="evenodd"></path><path stroke="#595959" stroke-width="1.0" stroke-linejoin="round" stroke-linecap="butt" d="m825.6116 130.55643l57.574768 0l0 55.370087l-57.574768 0z" fill-rule="evenodd"></path><path fill="#eeeeee" d="m825.6116 75.18635l57.574768 0l0 55.37008l-57.574768 0z" fill-rule="evenodd"></path><path stroke="#595959" stroke-width="1.0" stroke-linejoin="round" stroke-linecap="butt" d="m825.6116 75.18635l57.574768 0l0 55.37008l-57.574768 0z" fill-rule="evenodd"></path><path fill="#eeeeee" d="m883.18634 185.92651l57.57483 0l0 55.37007l-57.57483 0z" fill-rule="evenodd"></path><path stroke="#595959" stroke-width="1.0" stroke-linejoin="round" stroke-linecap="butt" d="m883.18634 185.92651l57.57483 0l0 55.37007l-57.57483 0z" fill-rule="evenodd"></path><path fill="#eeeeee" d="m883.18634 407.40683l57.57483 0l0 55.370087l-57.57483 0z" fill-rule="evenodd"></path><path stroke="#595959" stroke-width="1.0" stroke-linejoin="round" stroke-linecap="butt" d="m883.18634 407.40683l57.57483 0l0 55.370087l-57.57483 0z" fill-rule="evenodd"></path><path fill="#eeeeee" d="m883.18634 241.29659l57.57483 0l0 55.37007l-57.57483 0z" fill-rule="evenodd"></path><path stroke="#595959" stroke-width="1.0" stroke-linejoin="round" stroke-linecap="butt" d="m883.18634 241.29659l57.57483 0l0 55.37007l-57.57483 0z" fill-rule="evenodd"></path><path fill="#eeeeee" d="m883.18634 296.66666l57.57483 0l0 55.370087l-57.57483 0z" fill-rule="evenodd"></path><path stroke="#595959" stroke-width="1.0" stroke-linejoin="round" stroke-linecap="butt" d="m883.18634 296.66666l57.57483 0l0 55.370087l-57.57483 0z" fill-rule="evenodd"></path><path fill="#eeeeee" d="m883.18634 352.03674l57.57483 0l0 55.370087l-57.57483 0z" fill-rule="evenodd"></path><path stroke="#595959" stroke-width="1.0" stroke-linejoin="round" stroke-linecap="butt" d="m883.18634 352.03674l57.57483 0l0 55.370087l-57.57483 0z" fill-rule="evenodd"></path><path fill="#eeeeee" d="m883.18634 130.55643l57.57483 0l0 55.370087l-57.57483 0z" fill-rule="evenodd"></path><path stroke="#595959" stroke-width="1.0" stroke-linejoin="round" stroke-linecap="butt" d="m883.18634 130.55643l57.57483 0l0 55.370087l-57.57483 0z" fill-rule="evenodd"></path><path fill="#eeeeee" d="m883.18634 75.18635l57.57483 0l0 55.37008l-57.57483 0z" fill-rule="evenodd"></path><path stroke="#595959" stroke-width="1.0" stroke-linejoin="round" stroke-linecap="butt" d="m883.18634 75.18635l57.57483 0l0 55.37008l-57.57483 0z" fill-rule="evenodd"></path><path fill="#000000" fill-opacity="0.0" d="m363.8714 296.66666l0 -110.74014" fill-rule="evenodd"></path><path stroke="#595959" stroke-width="8.0" stroke-linejoin="round" stroke-linecap="butt" d="m363.8714 296.66666l0 -110.74014" fill-rule="evenodd"></path><path fill="#000000" fill-opacity="0.0" d="m99.997375 352.03674l0 -55.370087" fill-rule="evenodd"></path><path stroke="#595959" stroke-width="8.0" stroke-linejoin="round" stroke-linecap="butt" d="m99.997375 352.03674l0 -55.370087" fill-rule="evenodd"></path><path fill="#000000" fill-opacity="0.0" d="m739.2493 241.29659l0 -166.11023" fill-rule="evenodd"></path><path stroke="#595959" stroke-width="8.0" stroke-linejoin="round" stroke-linecap="butt" d="m739.2493 241.29659l0 -166.11023" fill-rule="evenodd"></path><path fill="#000000" fill-opacity="0.0" d="m102.70604 293.80054l43.653534 0l0 61.102356l-43.653534 0z" fill-rule="evenodd"></path><path fill="#cc0000" d="m127.45604 341.20053l-5.5 0l0 -20.6875q-3.0 2.8125 -7.078125 4.15625l0 -4.96875q2.140625 -0.703125 4.65625 -2.671875q2.53125 -1.96875 3.46875 -4.578125l4.453125 0l0 28.75z" fill-rule="nonzero"></path><path fill="#000000" fill-opacity="0.0" d="m370.83203 210.7454l43.653534 0l0 61.10237l-43.653534 0z" fill-rule="evenodd"></path><path fill="#cc0000" d="m400.0664 253.05165l0 5.0937653l-19.234375 0q0.3125 -2.8906403 1.875 -5.4687653q1.5625 -2.59375 6.171875 -6.875q3.703125 -3.453125 4.546875 -4.6875q1.140625 -1.703125 1.140625 -3.359375q0 -1.84375 -1.0 -2.828125q-0.984375 -0.984375 -2.71875 -0.984375q-1.71875 0 -2.734375 1.046875q-1.015625 1.03125 -1.171875 3.421875l-5.46875 -0.546875q0.484375 -4.53125 3.0625 -6.5q2.578125 -1.96875 6.453125 -1.96875q4.234375 0 6.65625 2.28125q2.421875 2.28125 2.421875 5.6875q0 1.9375 -0.703125 3.6875q-0.6875 1.734375 -2.1875 3.65625q-1.0 1.265625 -3.59375 3.65625q-2.59375 2.375 -3.296875 3.15625q-0.6875 0.78125 -1.109375 1.53125l10.890625 0z" fill-rule="nonzero"></path><path fill="#000000" fill-opacity="0.0" d="m746.20996 127.69029l43.653564 0l0 61.102356l-43.653564 0z" fill-rule="evenodd"></path><path fill="#cc0000" d="m756.70996 167.49654l5.3125 -0.65625q0.265625 2.03125 1.375 3.109375q1.109375 1.078125 2.6875 1.078125q1.703125 0 2.859375 -1.28125q1.171875 -1.296875 1.171875 -3.484375q0 -2.078125 -1.125 -3.28125q-1.109375 -1.21875 -2.703125 -1.21875q-1.0625 0 -2.515625 0.421875l0.59375 -4.484375q2.234375 0.0625 3.40625 -0.953125q1.171875 -1.03125 1.171875 -2.734375q0 -1.4375 -0.859375 -2.296875q-0.859375 -0.859375 -2.28125 -0.859375q-1.40625 0 -2.40625 0.984375q-1.0 0.96875 -1.21875 2.84375l-5.046875 -0.859375q0.515625 -2.609375 1.578125 -4.15625q1.078125 -1.546875 2.96875 -2.4375q1.90625 -0.890625 4.28125 -0.890625q4.03125 0 6.484375 2.578125q2.0 2.109375 2.0 4.765625q0 3.765625 -4.109375 6.015625q2.453125 0.53125 3.921875 2.375q1.484375 1.828125 1.484375 4.421875q0 3.765625 -2.765625 6.421875q-2.75 2.65625 -6.84375 2.65625q-3.890625 0 -6.453125 -2.234375q-2.546875 -2.234375 -2.96875 -5.84375z" fill-rule="nonzero"></path><path fill="#000000" fill-opacity="0.0" d="m13.635171 379.71652l0 0c0 -45.870056 38.665676 -83.055115 86.362206 -83.055115l0 0c22.904678 0 44.871246 8.750427 61.067307 24.326294c16.196045 15.575867 25.294891 36.701233 25.294891 58.72882l0 0c0 45.870087 -38.665665 83.055145 -86.3622 83.055145l0 0c-47.69653 0 -86.362206 -37.18506 -86.362206 -83.055145z" fill-rule="evenodd"></path><path stroke="#595959" stroke-width="4.0" stroke-linejoin="round" stroke-linecap="butt" stroke-dasharray="16.0,12.0" d="m13.635171 379.71652l0 0c0 -45.870056 38.665676 -83.055115 86.362206 -83.055115l0 0c22.904678 0 44.871246 8.750427 61.067307 24.326294c16.196045 15.575867 25.294891 36.701233 25.294891 58.72882l0 0c0 45.870087 -38.665665 83.055145 -86.3622 83.055145l0 0c-47.69653 0 -86.362206 -37.18506 -86.362206 -83.055145z" fill-rule="evenodd"></path><path fill="#000000" fill-opacity="0.0" d="m219.93439 324.3517l0 0c0 -76.450134 64.44278 -138.4252 143.93701 -138.4252l0 0c38.17447 0 74.7854 14.58403 101.77884 40.543793c26.993408 25.959763 42.158173 61.168762 42.158173 97.88141l0 0c0 76.4501 -64.44281 138.4252 -143.93701 138.4252l0 0c-79.49423 0 -143.93701 -61.975098 -143.93701 -138.4252z" fill-rule="evenodd"></path><path stroke="#595959" stroke-width="4.0" stroke-linejoin="round" stroke-linecap="butt" stroke-dasharray="16.0,12.0" d="m219.93439 324.3517l0 0c0 -76.450134 64.44278 -138.4252 143.93701 -138.4252l0 0c38.17447 0 74.7854 14.58403 101.77884 40.543793c26.993408 25.959763 42.158173 61.168762 42.158173 97.88141l0 0c0 76.4501 -64.44281 138.4252 -143.93701 138.4252l0 0c-79.49423 0 -143.93701 -61.975098 -143.93701 -138.4252z" fill-rule="evenodd"></path><path fill="#000000" fill-opacity="0.0" d="m537.73755 268.98163l0 0c0 -107.03018 90.21991 -193.79529 201.51178 -193.79529l0 0c53.444275 0 104.699585 20.417664 142.49036 56.76133c37.790833 36.34366 59.021484 85.636246 59.021484 137.03395l0 0c0 107.03018 -90.21991 193.79529 -201.51184 193.79529l0 0c-111.29187 0 -201.51178 -86.76511 -201.51178 -193.79529z" fill-rule="evenodd"></path><path stroke="#595959" stroke-width="4.0" stroke-linejoin="round" stroke-linecap="butt" stroke-dasharray="16.0,12.0" d="m537.73755 268.98163l0 0c0 -107.03018 90.21991 -193.79529 201.51178 -193.79529l0 0c53.444275 0 104.699585 20.417664 142.49036 56.76133c37.790833 36.34366 59.021484 85.636246 59.021484 137.03395l0 0c0 107.03018 -90.21991 193.79529 -201.51184 193.79529l0 0c-111.29187 0 -201.51178 -86.76511 -201.51178 -193.79529z" fill-rule="evenodd"></path><path fill="#000000" fill-opacity="0.0" d="m35.14698 472.65353l129.70078 0l0 37.417328l-129.70078 0z" fill-rule="evenodd"></path><path fill="#000000" d="m55.08136 504.69354l0 -17.1875l11.78125 0l0 2.90625l-8.3125 0l0 4.078125l7.171875 0l0 2.90625l-7.171875 0l0 7.296875l-3.46875 0zm17.082031 -8.65625l-2.984375 -0.53125q0.5 -1.8125 1.71875 -2.671875q1.234375 -0.875 3.671875 -0.875q2.203125 0 3.28125 0.53125q1.078125 0.515625 1.515625 1.328125q0.4375 0.796875 0.4375 2.9375l-0.03125 3.84375q0 1.640625 0.15625 2.421875q0.15625 0.78125 0.59375 1.671875l-3.265625 0q-0.125 -0.328125 -0.3125 -0.96875q-0.078125 -0.296875 -0.125 -0.390625q-0.84375 0.8125 -1.8125 1.234375q-0.953125 0.40625 -2.03125 0.40625q-1.921875 0 -3.03125 -1.046875q-1.109375 -1.046875 -1.109375 -2.640625q0 -1.046875 0.5 -1.875q0.5 -0.828125 1.40625 -1.265625q0.921875 -0.4375 2.625 -0.765625q2.3125 -0.4375 3.203125 -0.8125l0 -0.328125q0 -0.953125 -0.46875 -1.34375q-0.46875 -0.40625 -1.765625 -0.40625q-0.890625 0 -1.390625 0.34375q-0.484375 0.34375 -0.78125 1.203125zm4.40625 2.671875q-0.640625 0.21875 -2.015625 0.515625q-1.359375 0.28125 -1.78125 0.5625q-0.640625 0.46875 -0.640625 1.171875q0 0.6875 0.515625 1.1875q0.515625 0.5 1.3125 0.5q0.890625 0 1.6875 -0.578125q0.609375 -0.453125 0.796875 -1.09375q0.125 -0.421875 0.125 -1.609375l0 -0.65625zm17.332031 -2.78125l-3.25 0.578125q-0.15625 -0.96875 -0.75 -1.453125q-0.578125 -0.5 -1.5 -0.5q-1.234375 0 -1.96875 0.859375q-0.71875 0.84375 -0.71875 2.828125q0 2.21875 0.734375 3.140625q0.75 0.90625 2.0 0.90625q0.9375 0 1.53125 -0.53125q0.609375 -0.53125 0.84375 -1.828125l3.234375 0.546875q-0.5 2.21875 -1.9375 3.359375q-1.421875 1.140625 -3.828125 1.140625q-2.71875 0 -4.34375 -1.71875q-1.625 -1.734375 -1.625 -4.78125q0 -3.078125 1.625 -4.796875q1.625 -1.71875 4.40625 -1.71875q2.28125 0 3.609375 0.984375q1.34375 0.984375 1.9375 2.984375zm8.207031 -3.6875l0 2.625l-2.25 0l0 5.015625q0 1.53125 0.0625 1.78125q0.0625 0.25 0.28125 0.421875q0.234375 0.15625 0.5625 0.15625q0.453125 0 1.328125 -0.3125l0.28125 2.546875q-1.15625 0.5 -2.609375 0.5q-0.890625 0 -1.609375 -0.296875q-0.703125 -0.296875 -1.046875 -0.765625q-0.328125 -0.484375 -0.453125 -1.296875q-0.109375 -0.578125 -0.109375 -2.3125l0 -5.4375l-1.515625 0l0 -2.625l1.515625 0l0 -2.46875l3.3125 -1.921875l0 4.390625l2.25 0zm1.5234375 6.046875q0 -1.640625 0.796875 -3.171875q0.8125 -1.53125 2.296875 -2.34375q1.484375 -0.8125 3.3125 -0.8125q2.828125 0 4.625 1.84375q1.8125 1.828125 1.8125 4.625q0 2.828125 -1.828125 4.6875q-1.828125 1.859375 -4.59375 1.859375q-1.703125 0 -3.265625 -0.765625q-1.546875 -0.78125 -2.359375 -2.265625q-0.796875 -1.5 -0.796875 -3.65625zm3.375 0.1875q0 1.84375 0.875 2.828125q0.875 0.984375 2.171875 0.984375q1.28125 0 2.15625 -0.984375q0.875 -0.984375 0.875 -2.859375q0 -1.828125 -0.875 -2.8125q-0.875 -0.984375 -2.15625 -0.984375q-1.296875 0 -2.171875 0.984375q-0.875 0.984375 -0.875 2.84375zm15.191406 6.21875l-3.296875 0l0 -12.453125l3.0625 0l0 1.78125q0.78125 -1.265625 1.40625 -1.65625q0.640625 -0.40625 1.4375 -0.40625q1.125 0 2.15625 0.625l-1.015625 2.875q-0.828125 -0.546875 -1.546875 -0.546875q-0.6875 0 -1.171875 0.390625q-0.484375 0.375 -0.765625 1.375q-0.265625 1.0 -0.265625 4.171875l0 3.84375zm20.585938 0l-3.296875 0l0 -12.40625q-1.8125 1.6875 -4.25 2.484375l0 -2.984375q1.28125 -0.421875 2.796875 -1.59375q1.515625 -1.1875 2.078125 -2.75l2.671875 0l0 17.25z" fill-rule="nonzero"></path><path fill="#000000" fill-opacity="0.0" d="m299.021 472.65353l129.70078 0l0 37.417328l-129.70078 0z" fill-rule="evenodd"></path><path fill="#000000" d="m318.95538 504.69354l0 -17.1875l11.78125 0l0 2.90625l-8.3125 0l0 4.078125l7.171875 0l0 2.90625l-7.171875 0l0 7.296875l-3.46875 0zm17.082031 -8.65625l-2.984375 -0.53125q0.5 -1.8125 1.71875 -2.671875q1.234375 -0.875 3.671875 -0.875q2.203125 0 3.28125 0.53125q1.078125 0.515625 1.515625 1.328125q0.4375 0.796875 0.4375 2.9375l-0.03125 3.84375q0 1.640625 0.15625 2.421875q0.15625 0.78125 0.59375 1.671875l-3.265625 0q-0.125 -0.328125 -0.3125 -0.96875q-0.078125 -0.296875 -0.125 -0.390625q-0.84375 0.8125 -1.8125 1.234375q-0.953125 0.40625 -2.03125 0.40625q-1.921875 0 -3.03125 -1.046875q-1.109375 -1.046875 -1.109375 -2.640625q0 -1.046875 0.5 -1.875q0.5 -0.828125 1.40625 -1.265625q0.921875 -0.4375 2.625 -0.765625q2.3125 -0.4375 3.203125 -0.8125l0 -0.328125q0 -0.953125 -0.46875 -1.34375q-0.46875 -0.40625 -1.765625 -0.40625q-0.890625 0 -1.390625 0.34375q-0.484375 0.34375 -0.78125 1.203125zm4.40625 2.671875q-0.640625 0.21875 -2.015625 0.515625q-1.359375 0.28125 -1.78125 0.5625q-0.640625 0.46875 -0.640625 1.171875q0 0.6875 0.515625 1.1875q0.515625 0.5 1.3125 0.5q0.890625 0 1.6875 -0.578125q0.609375 -0.453125 0.796875 -1.09375q0.125 -0.421875 0.125 -1.609375l0 -0.65625zm17.332031 -2.78125l-3.25 0.578125q-0.15625 -0.96875 -0.75 -1.453125q-0.578125 -0.5 -1.5 -0.5q-1.234375 0 -1.96875 0.859375q-0.71875 0.84375 -0.71875 2.828125q0 2.21875 0.734375 3.140625q0.75 0.90625 2.0 0.90625q0.9375 0 1.53125 -0.53125q0.609375 -0.53125 0.84375 -1.828125l3.234375 0.546875q-0.5 2.21875 -1.9375 3.359375q-1.421875 1.140625 -3.828125 1.140625q-2.71875 0 -4.34375 -1.71875q-1.625 -1.734375 -1.625 -4.78125q0 -3.078125 1.625 -4.796875q1.625 -1.71875 4.40625 -1.71875q2.28125 0 3.609375 0.984375q1.34375 0.984375 1.9375 2.984375zm8.207031 -3.6875l0 2.625l-2.25 0l0 5.015625q0 1.53125 0.0625 1.78125q0.0625 0.25 0.28125 0.421875q0.234375 0.15625 0.5625 0.15625q0.453125 0 1.328125 -0.3125l0.28125 2.546875q-1.15625 0.5 -2.609375 0.5q-0.890625 0 -1.609375 -0.296875q-0.703125 -0.296875 -1.046875 -0.765625q-0.328125 -0.484375 -0.453125 -1.296875q-0.109375 -0.578125 -0.109375 -2.3125l0 -5.4375l-1.515625 0l0 -2.625l1.515625 0l0 -2.46875l3.3125 -1.921875l0 4.390625l2.25 0zm1.5234375 6.046875q0 -1.640625 0.796875 -3.171875q0.8125 -1.53125 2.296875 -2.34375q1.484375 -0.8125 3.3125 -0.8125q2.828125 0 4.625 1.84375q1.8125 1.828125 1.8125 4.625q0 2.828125 -1.828125 4.6875q-1.828125 1.859375 -4.59375 1.859375q-1.703125 0 -3.265625 -0.765625q-1.546875 -0.78125 -2.359375 -2.265625q-0.796875 -1.5 -0.796875 -3.65625zm3.375 0.1875q0 1.84375 0.875 2.828125q0.875 0.984375 2.171875 0.984375q1.28125 0 2.15625 -0.984375q0.875 -0.984375 0.875 -2.859375q0 -1.828125 -0.875 -2.8125q-0.875 -0.984375 -2.15625 -0.984375q-1.296875 0 -2.171875 0.984375q-0.875 0.984375 -0.875 2.84375zm15.191406 6.21875l-3.296875 0l0 -12.453125l3.0625 0l0 1.78125q0.78125 -1.265625 1.40625 -1.65625q0.640625 -0.40625 1.4375 -0.40625q1.125 0 2.15625 0.625l-1.015625 2.875q-0.828125 -0.546875 -1.546875 -0.546875q-0.6875 0 -1.171875 0.390625q-0.484375 0.375 -0.765625 1.375q-0.265625 1.0 -0.265625 4.171875l0 3.84375zm23.273438 -3.0625l0 3.0625l-11.546875 0q0.1875 -1.734375 1.125 -3.28125q0.9375 -1.5625 3.703125 -4.125q2.234375 -2.078125 2.734375 -2.8125q0.6875 -1.015625 0.6875 -2.015625q0 -1.109375 -0.59375 -1.6875q-0.59375 -0.59375 -1.640625 -0.59375q-1.03125 0 -1.640625 0.625q-0.609375 0.609375 -0.703125 2.046875l-3.28125 -0.328125q0.296875 -2.71875 1.84375 -3.890625q1.546875 -1.1875 3.859375 -1.1875q2.546875 0 4.0 1.375q1.453125 1.359375 1.453125 3.40625q0 1.15625 -0.421875 2.203125q-0.40625 1.046875 -1.3125 2.203125q-0.59375 0.765625 -2.15625 2.203125q-1.5625 1.421875 -1.984375 1.890625q-0.40625 0.46875 -0.65625 0.90625l6.53125 0z" fill-rule="nonzero"></path><path fill="#000000" fill-opacity="0.0" d="m674.3989 472.65353l129.7008 0l0 37.417328l-129.7008 0z" fill-rule="evenodd"></path><path fill="#000000" d="m694.3333 504.69354l0 -17.1875l11.78125 0l0 2.90625l-8.3125 0l0 4.078125l7.171875 0l0 2.90625l-7.171875 0l0 7.296875l-3.46875 0zm17.082031 -8.65625l-2.984375 -0.53125q0.5 -1.8125 1.71875 -2.671875q1.234375 -0.875 3.671875 -0.875q2.203125 0 3.28125 0.53125q1.078125 0.515625 1.515625 1.328125q0.4375 0.796875 0.4375 2.9375l-0.03125 3.84375q0 1.640625 0.15625 2.421875q0.15625 0.78125 0.59375 1.671875l-3.265625 0q-0.125 -0.328125 -0.3125 -0.96875q-0.078125 -0.296875 -0.125 -0.390625q-0.84375 0.8125 -1.8125 1.234375q-0.953125 0.40625 -2.03125 0.40625q-1.921875 0 -3.03125 -1.046875q-1.109375 -1.046875 -1.109375 -2.640625q0 -1.046875 0.5 -1.875q0.5 -0.828125 1.40625 -1.265625q0.921875 -0.4375 2.625 -0.765625q2.3125 -0.4375 3.203125 -0.8125l0 -0.328125q0 -0.953125 -0.46875 -1.34375q-0.46875 -0.40625 -1.765625 -0.40625q-0.890625 0 -1.390625 0.34375q-0.484375 0.34375 -0.78125 1.203125zm4.40625 2.671875q-0.640625 0.21875 -2.015625 0.515625q-1.359375 0.28125 -1.78125 0.5625q-0.640625 0.46875 -0.640625 1.171875q0 0.6875 0.515625 1.1875q0.515625 0.5 1.3125 0.5q0.890625 0 1.6875 -0.578125q0.609375 -0.453125 0.796875 -1.09375q0.125 -0.421875 0.125 -1.609375l0 -0.65625zm17.332031 -2.78125l-3.25 0.578125q-0.15625 -0.96875 -0.75 -1.453125q-0.578125 -0.5 -1.5 -0.5q-1.234375 0 -1.96875 0.859375q-0.71875 0.84375 -0.71875 2.828125q0 2.21875 0.734375 3.140625q0.75 0.90625 2.0 0.90625q0.9375 0 1.53125 -0.53125q0.609375 -0.53125 0.84375 -1.828125l3.234375 0.546875q-0.5 2.21875 -1.9375 3.359375q-1.421875 1.140625 -3.828125 1.140625q-2.71875 0 -4.34375 -1.71875q-1.625 -1.734375 -1.625 -4.78125q0 -3.078125 1.625 -4.796875q1.625 -1.71875 4.40625 -1.71875q2.28125 0 3.609375 0.984375q1.34375 0.984375 1.9375 2.984375zm8.207031 -3.6875l0 2.625l-2.25 0l0 5.015625q0 1.53125 0.0625 1.78125q0.0625 0.25 0.28125 0.421875q0.234375 0.15625 0.5625 0.15625q0.453125 0 1.328125 -0.3125l0.28125 2.546875q-1.15625 0.5 -2.609375 0.5q-0.890625 0 -1.609375 -0.296875q-0.703125 -0.296875 -1.046875 -0.765625q-0.328125 -0.484375 -0.453125 -1.296875q-0.109375 -0.578125 -0.109375 -2.3125l0 -5.4375l-1.515625 0l0 -2.625l1.515625 0l0 -2.46875l3.3125 -1.921875l0 4.390625l2.25 0zm1.5234375 6.046875q0 -1.640625 0.796875 -3.171875q0.8125 -1.53125 2.296875 -2.34375q1.484375 -0.8125 3.3125 -0.8125q2.828125 0 4.625 1.84375q1.8125 1.828125 1.8125 4.625q0 2.828125 -1.828125 4.6875q-1.828125 1.859375 -4.59375 1.859375q-1.703125 0 -3.265625 -0.765625q-1.546875 -0.78125 -2.359375 -2.265625q-0.796875 -1.5 -0.796875 -3.65625zm3.375 0.1875q0 1.84375 0.875 2.828125q0.875 0.984375 2.171875 0.984375q1.28125 0 2.15625 -0.984375q0.875 -0.984375 0.875 -2.859375q0 -1.828125 -0.875 -2.8125q-0.875 -0.984375 -2.15625 -0.984375q-1.296875 0 -2.171875 0.984375q-0.875 0.984375 -0.875 2.84375zm15.191406 6.21875l-3.296875 0l0 -12.453125l3.0625 0l0 1.78125q0.78125 -1.265625 1.40625 -1.65625q0.640625 -0.40625 1.4375 -0.40625q1.125 0 2.15625 0.625l-1.015625 2.875q-0.828125 -0.546875 -1.546875 -0.546875q-0.6875 0 -1.171875 0.390625q-0.484375 0.375 -0.765625 1.375q-0.265625 1.0 -0.265625 4.171875l0 3.84375zm12.0390625 -4.5625l3.1875 -0.390625q0.15625 1.21875 0.8125 1.875q0.671875 0.640625 1.625 0.640625q1.015625 0 1.703125 -0.765625q0.703125 -0.78125 0.703125 -2.09375q0 -1.25 -0.671875 -1.96875q-0.65625 -0.734375 -1.625 -0.734375q-0.625 0 -1.5 0.25l0.359375 -2.6875q1.328125 0.046875 2.03125 -0.5625q0.703125 -0.625 0.703125 -1.640625q0 -0.875 -0.515625 -1.390625q-0.515625 -0.515625 -1.359375 -0.515625q-0.84375 0 -1.453125 0.59375q-0.59375 0.578125 -0.71875 1.703125l-3.03125 -0.515625q0.3125 -1.5625 0.953125 -2.484375q0.640625 -0.9375 1.78125 -1.46875q1.140625 -0.53125 2.5625 -0.53125q2.421875 0 3.890625 1.546875q1.203125 1.265625 1.203125 2.859375q0 2.265625 -2.46875 3.609375q1.46875 0.3125 2.34375 1.421875q0.890625 1.09375 0.890625 2.65625q0 2.265625 -1.65625 3.859375q-1.640625 1.59375 -4.109375 1.59375q-2.328125 0 -3.859375 -1.34375q-1.53125 -1.34375 -1.78125 -3.515625z" fill-rule="nonzero"></path></g></svg>

